<?xml version="1.0" encoding="utf-8"?>
<!-- Generator: Adobe Illustrator 27.2.0, SVG Export Plug-In . SVG Version: 6.00 Build 0)  -->
<svg version="1.1" id="Layer_1" xmlns="http://www.w3.org/2000/svg" xmlns:xlink="http://www.w3.org/1999/xlink" x="0px" y="0px"
	 viewBox="0 0 964.6 173.9" style="enable-background:new 0 0 964.6 173.9;" xml:space="preserve">
<style type="text/css">
	.st0{fill:#FFFFFF;}
</style>
<g>
	<g>
		<path class="st0" d="M874.6,48c-34.8,0-59.3,25.9-59.3,62.9s24.5,62.9,59.3,62.9c34.8,0,59.3-25.9,59.3-62.9S909.4,48,874.6,48z
			 M874.6,153c-21.6,0-36.3-17.1-36.3-42s14.7-42,36.3-42s36.3,17.1,36.3,42S896.2,153,874.6,153z"/>
		<path class="st0" d="M772.3,90.8C768.9,62.2,755.2,48,731.2,48c-31.7,0-53.5,25.7-53.5,62.9c0,37.2,21.8,62.9,53.5,62.9
			c23.8,0,37.7-13.5,41.1-42.7v40.8h22.8V0h-22.8V90.8z M736.5,153c-21.6,0-35.8-16.8-35.8-42s14.2-42,35.8-42s35.8,16.8,35.8,42
			S758.1,153,736.5,153z"/>
		<path class="st0" d="M634.2,110.9c0,26.4-13.4,42-36.3,42c-19.7,0-27.6-10.8-27.6-37v-66h-22.8v69.9c0,35.8,15.1,54,45.2,54
			c25.7,0,38.2-12.7,41.5-42v40.1H657V50h-22.8V110.9z"/>
		<rect x="499.7" class="st0" width="22.8" height="171.9"/>
		<rect x="449.5" class="st0" width="22.8" height="171.9"/>
		<path class="st0" d="M336.2,3.8l-58.6,168.1h25.7l13.7-40.1h78.8l13.7,40.1h25.7L376.5,3.8L336.2,3.8L336.2,3.8z M366.9,110.9h-43
			l32.4-94.1l39.1,114.3C391.2,118.9,379.9,110.9,366.9,110.9z"/>
		<g>
			<path class="st0" d="M226.5,90.5c-27.8,1.3-51.8,17.3-64.5,40.3V3.7c0-2-1.7-3.7-3.7-3.6C70.6,2,0,73.8,0,162.1
				c0,2.1,0.1,4.2,0.1,6.3c0.1,2,1.7,3.5,3.6,3.5h223c2,0,3.6-1.6,3.6-3.6V94.1C230.4,92,228.6,90.4,226.5,90.5z"/>
		</g>
	</g>
	<path class="st0" d="M934.5,50.9v-2.4h12.2v2.4H942v11.9h-2.8V50.9H934.5z M953.2,48.5l3.7,10.3l3.7-10.3h4.1v14.3H962V51.2
		l-4,11.6h-2.3l-4-11.6v11.6h-2.6V48.5H953.2z"/>
</g>
</svg>
