<?xml version="1.0" encoding="utf-8"?>
<!-- Generator: Adobe Illustrator 27.4.1, SVG Export Plug-In . SVG Version: 6.00 Build 0)  -->
<svg version="1.1" id="Layer_1" xmlns:xodm="http://www.corel.com/coreldraw/odm/2003"
	 xmlns="http://www.w3.org/2000/svg" xmlns:xlink="http://www.w3.org/1999/xlink" x="0px" y="0px" viewBox="0 0 601 601"
	 style="enable-background:new 0 0 601 601;" xml:space="preserve">
<style type="text/css">
	.st0{fill:none;}
</style>
<g id="Layer_x0020_1">
	<path d="M401.1,496.8L464,355.5c12.1-25.1,12.8-53.6,2.1-77.8L360.6,23.2c-6-14.1-19.2-22.8-34.6-22.8h-51.4
		c-15.3,0-28.6,8.7-34.7,23.1L135.1,277.7c-10.8,24.6-10.3,52.9,1.4,77.4l63.3,142.1c3.8,7.8,9.3,14.2,16.1,18.9h-23.3
		c-10.8,0-20.3,9.5-20.3,20.3v64h256.3v-64.4c0-10.8-9.5-20.3-20.3-20.3H385c6.9-4.8,12.5-11.3,16.1-19V496.8z M173.8,338
		c-6.6-13.9-7-30.3-0.9-44.2l104-252.4h3.2v194.7c-20.8,8.2-35.5,28.4-35.5,52c0,30.9,25,56,55.9,56s55.9-25,55.9-56
		c0-23.7-14.7-43.8-35.5-52V41.4h2.8l104.7,252.4c6.1,13.6,5.5,29.7-1.5,44l-63.3,142.1c-1.1,2.3-4.4,4.2-7.5,4.2H244.4
		c-2.7,0-6.1-1.2-7.4-4.1l-63.3-142.1L173.8,338z"/>
	<path class="st0" d="M0.4,0H601v601H0V0H0.4z M600.1,0.9H0.9v599.2h599.2V0.9z"/>
</g>
</svg>
